<svg width="25" height="25" viewBox="0 0 25 25" fill="none" xmlns="http://www.w3.org/2000/svg">
<path d="M16.0667 12.5L24.8262 3.74051C25.0579 3.50877 25.0579 3.13303 24.8262 2.9013L22.0987 0.173827C21.867 -0.0579422 21.4912 -0.0579422 21.2595 0.173827L12.5 8.9333L3.74052 0.173827C3.50875 -0.0579422 3.13304 -0.0579422 2.90127 0.173827L0.173799 2.9013C-0.0579331 3.13303 -0.0579331 3.50877 0.173799 3.74051L8.93331 12.5L0.173799 21.2595C-0.0579331 21.4913 -0.0579331 21.867 0.173799 22.0987L2.90127 24.8262C3.13304 25.0579 3.50875 25.0579 3.74052 24.8262L12.5 16.0667L21.2595 24.8262C21.4912 25.0579 21.867 25.0579 22.0987 24.8262L24.8262 22.0987C25.0579 21.867 25.0579 21.4913 24.8262 21.2595L16.0667 12.5Z" fill="black"/>
<path d="M16.0667 12.5L24.8262 3.74051C25.0579 3.50877 25.0579 3.13303 24.8262 2.9013L22.0987 0.173827C21.867 -0.0579422 21.4912 -0.0579422 21.2595 0.173827L12.5 8.9333L3.74052 0.173827C3.50875 -0.0579422 3.13304 -0.0579422 2.90127 0.173827L0.173799 2.9013C-0.0579331 3.13303 -0.0579331 3.50877 0.173799 3.74051L8.93331 12.5L0.173799 21.2595C-0.0579331 21.4913 -0.0579331 21.867 0.173799 22.0987L2.90127 24.8262C3.13304 25.0579 3.50875 25.0579 3.74052 24.8262L12.5 16.0667L21.2595 24.8262C21.4912 25.0579 21.867 25.0579 22.0987 24.8262L24.8262 22.0987C25.0579 21.867 25.0579 21.4913 24.8262 21.2595L16.0667 12.5Z" fill="url(#paint0_linear_334_720)"/>
<defs>
<linearGradient id="paint0_linear_334_720" x1="1.45914" y1="2.12819e-05" x2="43.4864" y2="1.07421" gradientUnits="userSpaceOnUse">
<stop stop-color="#11AE88"/>
<stop offset="1" stop-color="#2A84EE"/>
</linearGradient>
</defs>
</svg>
