<svg width="29" height="18" viewBox="0 0 29 18" fill="none" xmlns="http://www.w3.org/2000/svg">
<path d="M14.3688 17.4828C6.58996 17.4828 0.466029 9.959 0.211066 9.63669C0.0744409 9.46604 0 9.25396 0 9.03536C0 8.81676 0.0744409 8.60467 0.211066 8.43403C0.466029 8.11172 6.58996 0.587891 14.3688 0.587891C22.1475 0.587891 28.2715 8.11172 28.5264 8.43403C28.6631 8.60467 28.7375 8.81676 28.7375 9.03536C28.7375 9.25396 28.6631 9.46604 28.5264 9.63669C28.2715 9.959 22.1475 17.4828 14.3688 17.4828ZM2.23634 9.03536C3.81423 10.7528 8.72107 15.5586 14.3688 15.5586C20.0164 15.5586 24.9233 10.7528 26.5012 9.03536C24.9233 7.31796 20.0212 2.51214 14.3688 2.51214C8.71626 2.51214 3.81423 7.31796 2.23634 9.03536Z" fill="black"/>
<path d="M14.3688 17.4828C6.58996 17.4828 0.466029 9.959 0.211066 9.63669C0.0744409 9.46604 0 9.25396 0 9.03536C0 8.81676 0.0744409 8.60467 0.211066 8.43403C0.466029 8.11172 6.58996 0.587891 14.3688 0.587891C22.1475 0.587891 28.2715 8.11172 28.5264 8.43403C28.6631 8.60467 28.7375 8.81676 28.7375 9.03536C28.7375 9.25396 28.6631 9.46604 28.5264 9.63669C28.2715 9.959 22.1475 17.4828 14.3688 17.4828ZM2.23634 9.03536C3.81423 10.7528 8.72107 15.5586 14.3688 15.5586C20.0164 15.5586 24.9233 10.7528 26.5012 9.03536C24.9233 7.31796 20.0212 2.51214 14.3688 2.51214C8.71626 2.51214 3.81423 7.31796 2.23634 9.03536Z" fill="url(#paint0_linear_332_8631)"/>
<path d="M14.3688 13.6965C13.4468 13.6965 12.5456 13.4231 11.779 12.9109C11.0124 12.3987 10.4149 11.6707 10.0621 10.8189C9.7093 9.96714 9.61698 9.02987 9.79685 8.12562C9.97671 7.22138 10.4207 6.39078 11.0726 5.73886C11.7245 5.08694 12.5551 4.64297 13.4594 4.46311C14.3636 4.28324 15.3009 4.37556 16.1527 4.72837C17.0044 5.08119 17.7325 5.67867 18.2447 6.44525C18.7569 7.21183 19.0303 8.11308 19.0303 9.03504C19.029 10.271 18.5375 11.4559 17.6636 12.3298C16.7896 13.2037 15.6047 13.6953 14.3688 13.6965Z" fill="black"/>
<path d="M14.3688 13.6965C13.4468 13.6965 12.5456 13.4231 11.779 12.9109C11.0124 12.3987 10.4149 11.6707 10.0621 10.8189C9.7093 9.96714 9.61698 9.02987 9.79685 8.12562C9.97671 7.22138 10.4207 6.39078 11.0726 5.73886C11.7245 5.08694 12.5551 4.64297 13.4594 4.46311C14.3636 4.28324 15.3009 4.37556 16.1527 4.72837C17.0044 5.08119 17.7325 5.67867 18.2447 6.44525C18.7569 7.21183 19.0303 8.11308 19.0303 9.03504C19.029 10.271 18.5375 11.4559 17.6636 12.3298C16.7896 13.2037 15.6047 13.6953 14.3688 13.6965Z" fill="url(#paint1_linear_332_8631)"/>
<defs>
<linearGradient id="paint0_linear_332_8631" x1="1.67729" y1="0.587905" x2="49.928" y2="2.68561" gradientUnits="userSpaceOnUse">
<stop stop-color="#11AE88"/>
<stop offset="1" stop-color="#2A84EE"/>
</linearGradient>
<linearGradient id="paint1_linear_332_8631" x1="10.2514" y1="4.37354" x2="25.9242" y2="4.77413" gradientUnits="userSpaceOnUse">
<stop stop-color="#11AE88"/>
<stop offset="1" stop-color="#2A84EE"/>
</linearGradient>
</defs>
</svg>
