<svg width="48" height="49" viewBox="0 0 48 49" fill="none" xmlns="http://www.w3.org/2000/svg">
<path d="M46.396 22.4011L21.4505 22.4011L25.1308 18.7369C25.2807 18.5882 25.3998 18.4112 25.481 18.2162C25.5622 18.0212 25.6041 17.8121 25.6041 17.6009C25.6041 17.3896 25.5622 17.1805 25.481 16.9855C25.3998 16.7905 25.2807 16.6135 25.1308 16.4648C24.982 16.3148 24.805 16.1958 24.6101 16.1145C24.4151 16.0333 24.2059 15.9915 23.9947 15.9915C23.7835 15.9915 23.5743 16.0333 23.3793 16.1145C23.1844 16.1958 23.0074 16.3148 22.8586 16.4648L16.4583 22.8652C16.3126 23.0173 16.1984 23.1968 16.1222 23.3932C15.9622 23.7828 15.9622 24.2197 16.1222 24.6093C16.1984 24.8057 16.3126 24.9851 16.4583 25.1373L22.8586 31.5377C23.1599 31.839 23.5686 32.0082 23.9947 32.0082C24.4208 32.0082 24.8295 31.839 25.1308 31.5377C25.4321 31.2364 25.6013 30.8277 25.6013 30.4016C25.6013 29.9755 25.4321 29.5668 25.1308 29.2655L21.4505 25.6013L46.396 25.6013C46.8204 25.6013 47.2274 25.4327 47.5274 25.1327C47.8275 24.8326 47.9961 24.4256 47.9961 24.0012C47.9961 23.5769 47.8275 23.1699 47.5274 22.8698C47.2274 22.5697 46.8204 22.4011 46.396 22.4011Z" fill="black"/>
<path d="M46.396 22.4011L21.4505 22.4011L25.1308 18.7369C25.2807 18.5882 25.3998 18.4112 25.481 18.2162C25.5622 18.0212 25.6041 17.8121 25.6041 17.6009C25.6041 17.3896 25.5622 17.1805 25.481 16.9855C25.3998 16.7905 25.2807 16.6135 25.1308 16.4648C24.982 16.3148 24.805 16.1958 24.6101 16.1145C24.4151 16.0333 24.2059 15.9915 23.9947 15.9915C23.7835 15.9915 23.5743 16.0333 23.3793 16.1145C23.1844 16.1958 23.0074 16.3148 22.8586 16.4648L16.4583 22.8652C16.3126 23.0173 16.1984 23.1968 16.1222 23.3932C15.9622 23.7828 15.9622 24.2197 16.1222 24.6093C16.1984 24.8057 16.3126 24.9851 16.4583 25.1373L22.8586 31.5377C23.1599 31.839 23.5686 32.0082 23.9947 32.0082C24.4208 32.0082 24.8295 31.839 25.1308 31.5377C25.4321 31.2364 25.6013 30.8277 25.6013 30.4016C25.6013 29.9755 25.4321 29.5668 25.1308 29.2655L21.4505 25.6013L46.396 25.6013C46.8204 25.6013 47.2274 25.4327 47.5274 25.1327C47.8275 24.8326 47.9961 24.4256 47.9961 24.0012C47.9961 23.5769 47.8275 23.1699 47.5274 22.8698C47.2274 22.5697 46.8204 22.4011 46.396 22.4011Z" fill="url(#paint0_linear_332_785)"/>
<path d="M23.9947 48.0029C29.1671 47.9825 34.1963 46.3017 38.3416 43.2079C42.4868 40.1141 45.529 35.7709 47.02 30.8179C47.0837 30.6142 47.106 30.3997 47.0856 30.1872C47.0651 29.9747 47.0023 29.7684 46.9009 29.5805C46.7995 29.3927 46.6616 29.227 46.4952 29.0932C46.3287 28.9595 46.1372 28.8604 45.932 28.8018C45.5246 28.683 45.0866 28.7309 44.7145 28.9349C44.3425 29.139 44.0667 29.4825 43.9478 29.8899C42.5286 34.6842 39.43 38.8069 35.2192 41.5032C31.0085 44.1994 25.9675 45.2888 21.0192 44.5717C16.0709 43.8547 11.5464 41.3793 8.27417 37.5988C5.00195 33.8182 3.20097 28.9855 3.20097 23.9855C3.20097 18.9855 5.00196 14.1528 8.27417 10.3723C11.5464 6.59175 16.0709 4.11634 21.0192 3.39932C25.9675 2.68229 31.0085 3.77163 35.2192 6.46788C39.43 9.16412 42.5286 13.2868 43.9478 18.0812C44.0033 18.2858 44.0988 18.4774 44.2289 18.6447C44.359 18.8121 44.5211 18.9519 44.7057 19.0562C44.8903 19.1604 45.0937 19.2269 45.3042 19.2518C45.5148 19.2767 45.7281 19.2595 45.932 19.2013C46.1355 19.1425 46.3253 19.044 46.4904 18.9113C46.6555 18.7787 46.7927 18.6146 46.8939 18.4285C46.9951 18.2425 47.0584 18.0382 47.08 17.8275C47.1017 17.6168 47.0813 17.4039 47.02 17.2011C45.7582 12.9301 43.333 9.09446 40.0156 6.12315C36.6982 3.15183 32.6196 1.16209 28.236 0.376501C23.8523 -0.409086 19.3365 0.0404677 15.1938 1.67487C11.0511 3.30927 7.44475 6.06406 4.7783 9.63107C2.11184 13.1981 0.490401 17.4366 0.0953697 21.8726C-0.299665 26.3085 0.547281 30.7668 2.54147 34.7489C4.53566 38.731 7.59843 42.0796 11.3872 44.4204C15.1759 46.7611 19.5412 48.0015 23.9947 48.0029Z" fill="black"/>
<path d="M23.9947 48.0029C29.1671 47.9825 34.1963 46.3017 38.3416 43.2079C42.4868 40.1141 45.529 35.7709 47.02 30.8179C47.0837 30.6142 47.106 30.3997 47.0856 30.1872C47.0651 29.9747 47.0023 29.7684 46.9009 29.5805C46.7995 29.3927 46.6616 29.227 46.4952 29.0932C46.3287 28.9595 46.1372 28.8604 45.932 28.8018C45.5246 28.683 45.0866 28.7309 44.7145 28.9349C44.3425 29.139 44.0667 29.4825 43.9478 29.8899C42.5286 34.6842 39.43 38.8069 35.2192 41.5032C31.0085 44.1994 25.9675 45.2888 21.0192 44.5717C16.0709 43.8547 11.5464 41.3793 8.27417 37.5988C5.00195 33.8182 3.20097 28.9855 3.20097 23.9855C3.20097 18.9855 5.00196 14.1528 8.27417 10.3723C11.5464 6.59175 16.0709 4.11634 21.0192 3.39932C25.9675 2.68229 31.0085 3.77163 35.2192 6.46788C39.43 9.16412 42.5286 13.2868 43.9478 18.0812C44.0033 18.2858 44.0988 18.4774 44.2289 18.6447C44.359 18.8121 44.5211 18.9519 44.7057 19.0562C44.8903 19.1604 45.0937 19.2269 45.3042 19.2518C45.5148 19.2767 45.7281 19.2595 45.932 19.2013C46.1355 19.1425 46.3253 19.044 46.4904 18.9113C46.6555 18.7787 46.7927 18.6146 46.8939 18.4285C46.9951 18.2425 47.0584 18.0382 47.08 17.8275C47.1017 17.6168 47.0813 17.4039 47.02 17.2011C45.7582 12.9301 43.333 9.09446 40.0156 6.12315C36.6982 3.15183 32.6196 1.16209 28.236 0.376501C23.8523 -0.409086 19.3365 0.0404677 15.1938 1.67487C11.0511 3.30927 7.44475 6.06406 4.7783 9.63107C2.11184 13.1981 0.490401 17.4366 0.0953697 21.8726C-0.299665 26.3085 0.547281 30.7668 2.54147 34.7489C4.53566 38.731 7.59843 42.0796 11.3872 44.4204C15.1759 46.7611 19.5412 48.0015 23.9947 48.0029Z" fill="url(#paint1_linear_332_785)"/>
<defs>
<linearGradient id="paint0_linear_332_785" x1="46.1287" y1="32.0082" x2="-7.55106" y2="29.2676" gradientUnits="userSpaceOnUse">
<stop stop-color="#11AE88"/>
<stop offset="1" stop-color="#2A84EE"/>
</linearGradient>
<linearGradient id="paint1_linear_332_785" x1="44.3443" y1="48.0029" x2="-34.8237" y2="46.0178" gradientUnits="userSpaceOnUse">
<stop stop-color="#11AE88"/>
<stop offset="1" stop-color="#2A84EE"/>
</linearGradient>
</defs>
</svg>
