<svg width="20" height="15" viewBox="0 0 20 15" fill="none" xmlns="http://www.w3.org/2000/svg">
<path fill-rule="evenodd" clip-rule="evenodd" d="M17.8121 0C17.8099 6.43217e-05 17.8077 0.000138289 17.8055 0.000233085C17.805 0.000232483 17.8046 0.000232483 17.8042 0.000233085C17.8034 0.000310645 17.8026 0.000384611 17.8018 0.000466169C17.7275 0.00179047 17.6546 0.0204214 17.5888 0.0548769C17.523 0.0893323 17.4662 0.13867 17.4228 0.198952L7.81262 9.85147L2.70293 4.71906C2.65908 4.65788 2.60139 4.60794 2.53456 4.57331C2.46773 4.53868 2.39366 4.52034 2.31839 4.51979C2.3124 4.51952 2.30641 4.51935 2.30042 4.51931C2.30016 4.51931 2.29991 4.51931 2.29965 4.51931C2.29904 4.51938 2.29843 4.51947 2.29782 4.51955C2.22331 4.52081 2.15014 4.53948 2.08414 4.57408C2.01815 4.60868 1.96117 4.65826 1.91777 4.71883L0.199132 6.44512C0.136725 6.4901 0.0861102 6.5495 0.0515978 6.61825C0.0170855 6.687 -0.000302421 6.76307 0.000914215 6.83998C0.000910317 6.8411 0.000910317 6.84221 0.000914215 6.84332C0.000986125 6.84555 0.00107354 6.84778 0.00117666 6.85001C0.00259497 6.9241 0.0212446 6.99685 0.055649 7.06249C0.0900534 7.12813 0.139268 7.18487 0.199394 7.2282L7.23172 14.2809C7.27608 14.3254 7.32878 14.3607 7.38681 14.3848C7.44483 14.4089 7.50705 14.4213 7.56988 14.4213C7.63271 14.4213 7.69492 14.4089 7.75295 14.3848C7.81098 14.3607 7.86368 14.3254 7.90803 14.2809L19.6724 2.46496C19.7349 2.41985 19.7856 2.36028 19.82 2.29134C19.8545 2.22239 19.8718 2.14612 19.8704 2.06905C19.8704 2.06857 19.8704 2.0681 19.8704 2.06762C19.8704 2.06738 19.8704 2.06715 19.8704 2.06691C19.8704 2.06643 19.8704 2.06596 19.8704 2.06548C19.8697 1.99078 19.8516 1.91726 19.8174 1.85084C19.7832 1.78442 19.7339 1.72695 19.6735 1.68306L18.2085 0.201997C18.165 0.140657 18.1076 0.0904686 18.041 0.0555178C17.9744 0.0205671 17.9005 0.00184261 17.8253 0.000874067C17.8209 0.000574313 17.8165 0.00017758 17.8121 0Z" fill="#2EB897"/>
</svg>
