<svg width="48" height="49" viewBox="0 0 48 49" fill="none" xmlns="http://www.w3.org/2000/svg">
<path d="M23.9947 48.0029C29.1671 47.9825 34.1963 46.3017 38.3416 43.2079C42.4868 40.1141 45.529 35.7709 47.02 30.8179C47.0837 30.6142 47.106 30.3997 47.0855 30.1872C47.0651 29.9747 47.0023 29.7684 46.9009 29.5805C46.7995 29.3927 46.6616 29.227 46.4951 29.0932C46.3287 28.9595 46.1372 28.8604 45.9319 28.8018C45.5245 28.683 45.0866 28.7309 44.7145 28.9349C44.3424 29.139 44.0666 29.4825 43.9478 29.8899C42.5286 34.6842 39.4299 38.8069 35.2192 41.5032C31.0085 44.1994 25.9675 45.2888 21.0192 44.5717C16.0708 43.8547 11.5464 41.3793 8.27416 37.5988C5.00194 33.8182 3.20095 28.9855 3.20095 23.9855C3.20095 18.9855 5.00194 14.1528 8.27416 10.3723C11.5464 6.59175 16.0709 4.11634 21.0192 3.39932C25.9675 2.68229 31.0085 3.77163 35.2192 6.46788C39.4299 9.16412 42.5286 13.2868 43.9478 18.0812C44.0033 18.2858 44.0988 18.4774 44.2289 18.6447C44.359 18.8121 44.521 18.9519 44.7056 19.0562C44.8902 19.1604 45.0937 19.2269 45.3042 19.2518C45.5147 19.2767 45.7281 19.2595 45.9319 19.2013C46.1354 19.1425 46.3253 19.044 46.4904 18.9113C46.6555 18.7787 46.7926 18.6146 46.8939 18.4285C46.9951 18.2425 47.0583 18.0382 47.08 17.8275C47.1016 17.6168 47.0813 17.4039 47.02 17.2011C45.7582 12.9301 43.3329 9.09446 40.0156 6.12315C36.6982 3.15183 32.6196 1.16209 28.2359 0.376501C23.8523 -0.409086 19.3365 0.0404677 15.1938 1.67487C11.051 3.30927 7.44474 6.06406 4.77828 9.63107C2.11182 13.1981 0.490386 17.4366 0.0953545 21.8726C-0.299681 26.3085 0.547266 30.7668 2.54146 34.7489C4.53564 38.731 7.59841 42.0796 11.3872 44.4204C15.1759 46.7611 19.5412 48.0015 23.9947 48.0029Z" fill="black"/>
<path d="M23.9947 48.0029C29.1671 47.9825 34.1963 46.3017 38.3416 43.2079C42.4868 40.1141 45.529 35.7709 47.02 30.8179C47.0837 30.6142 47.106 30.3997 47.0855 30.1872C47.0651 29.9747 47.0023 29.7684 46.9009 29.5805C46.7995 29.3927 46.6616 29.227 46.4951 29.0932C46.3287 28.9595 46.1372 28.8604 45.9319 28.8018C45.5245 28.683 45.0866 28.7309 44.7145 28.9349C44.3424 29.139 44.0666 29.4825 43.9478 29.8899C42.5286 34.6842 39.4299 38.8069 35.2192 41.5032C31.0085 44.1994 25.9675 45.2888 21.0192 44.5717C16.0708 43.8547 11.5464 41.3793 8.27416 37.5988C5.00194 33.8182 3.20095 28.9855 3.20095 23.9855C3.20095 18.9855 5.00194 14.1528 8.27416 10.3723C11.5464 6.59175 16.0709 4.11634 21.0192 3.39932C25.9675 2.68229 31.0085 3.77163 35.2192 6.46788C39.4299 9.16412 42.5286 13.2868 43.9478 18.0812C44.0033 18.2858 44.0988 18.4774 44.2289 18.6447C44.359 18.8121 44.521 18.9519 44.7056 19.0562C44.8902 19.1604 45.0937 19.2269 45.3042 19.2518C45.5147 19.2767 45.7281 19.2595 45.9319 19.2013C46.1354 19.1425 46.3253 19.044 46.4904 18.9113C46.6555 18.7787 46.7926 18.6146 46.8939 18.4285C46.9951 18.2425 47.0583 18.0382 47.08 17.8275C47.1016 17.6168 47.0813 17.4039 47.02 17.2011C45.7582 12.9301 43.3329 9.09446 40.0156 6.12315C36.6982 3.15183 32.6196 1.16209 28.2359 0.376501C23.8523 -0.409086 19.3365 0.0404677 15.1938 1.67487C11.051 3.30927 7.44474 6.06406 4.77828 9.63107C2.11182 13.1981 0.490386 17.4366 0.0953545 21.8726C-0.299681 26.3085 0.547266 30.7668 2.54146 34.7489C4.53564 38.731 7.59841 42.0796 11.3872 44.4204C15.1759 46.7611 19.5412 48.0015 23.9947 48.0029Z" fill="url(#paint0_linear_639_2)"/>
<path d="M26.8534 24L33.8609 16.9924C34.0464 16.807 34.0464 16.5064 33.8609 16.321L31.679 14.1391C31.4936 13.9536 31.193 13.9536 31.0076 14.1391L24 21.1466L16.9924 14.1391C16.807 13.9536 16.5064 13.9536 16.321 14.1391L14.139 16.321C13.9537 16.5064 13.9537 16.807 14.139 16.9924L21.1466 24L14.139 31.0076C13.9537 31.193 13.9537 31.4936 14.139 31.679L16.321 33.861C16.5064 34.0463 16.807 34.0463 16.9924 33.861L24 26.8534L31.0076 33.861C31.193 34.0463 31.4936 34.0463 31.679 33.861L33.8609 31.679C34.0464 31.4936 34.0464 31.193 33.8609 31.0076L26.8534 24Z" fill="black"/>
<path d="M26.8534 24L33.8609 16.9924C34.0464 16.807 34.0464 16.5064 33.8609 16.321L31.679 14.1391C31.4936 13.9536 31.193 13.9536 31.0076 14.1391L24 21.1466L16.9924 14.1391C16.807 13.9536 16.5064 13.9536 16.321 14.1391L14.139 16.321C13.9537 16.5064 13.9537 16.807 14.139 16.9924L21.1466 24L14.139 31.0076C13.9537 31.193 13.9537 31.4936 14.139 31.679L16.321 33.861C16.5064 34.0463 16.807 34.0463 16.9924 33.861L24 26.8534L31.0076 33.861C31.193 34.0463 31.4936 34.0463 31.679 33.861L33.8609 31.679C34.0464 31.4936 34.0464 31.193 33.8609 31.0076L26.8534 24Z" fill="url(#paint1_linear_639_2)"/>
<defs>
<linearGradient id="paint0_linear_639_2" x1="44.3443" y1="48.0029" x2="-34.8238" y2="46.0178" gradientUnits="userSpaceOnUse">
<stop stop-color="#11AE88"/>
<stop offset="1" stop-color="#2A84EE"/>
</linearGradient>
<linearGradient id="paint1_linear_639_2" x1="15.1673" y1="14" x2="48.7891" y2="14.8594" gradientUnits="userSpaceOnUse">
<stop stop-color="#11AE88"/>
<stop offset="1" stop-color="#2A84EE"/>
</linearGradient>
</defs>
</svg>
