<svg width="71" height="70" viewBox="0 0 71 70" fill="none" xmlns="http://www.w3.org/2000/svg">
<path fill-rule="evenodd" clip-rule="evenodd" d="M35.5 70C54.83 70 70.5 54.33 70.5 35C70.5 15.67 54.83 0 35.5 0C16.17 0 0.5 15.67 0.5 35C0.5 54.33 16.17 70 35.5 70Z" fill="#FF0002"/>
<path fill-rule="evenodd" clip-rule="evenodd" d="M30.6819 41.0952L30.6804 27.8903L43.2892 34.5155L30.6819 41.0952ZM58.3669 25.6021C58.3669 25.6021 57.9104 22.3637 56.5119 20.9376C54.7371 19.065 52.7479 19.0562 51.8365 18.9475C45.306 18.4717 35.5104 18.4717 35.5104 18.4717H35.49C35.49 18.4717 25.6944 18.4717 19.164 18.9475C18.251 19.0562 16.2633 19.065 14.4871 20.9376C13.0885 22.3637 12.6335 25.6021 12.6335 25.6021C12.6335 25.6021 12.1669 29.406 12.1669 33.2084V36.7744C12.1669 40.5782 12.6335 44.3806 12.6335 44.3806C12.6335 44.3806 13.0885 47.6191 14.4871 49.0452C16.2633 50.9177 18.5952 50.859 19.6335 51.0543C23.3669 51.4156 35.5002 51.5272 35.5002 51.5272C35.5002 51.5272 45.306 51.5126 51.8365 51.0367C52.7479 50.9265 54.7371 50.9177 56.5119 49.0452C57.9104 47.6191 58.3669 44.3806 58.3669 44.3806C58.3669 44.3806 58.8335 40.5782 58.8335 36.7744V33.2084C58.8335 29.406 58.3669 25.6021 58.3669 25.6021Z" fill="white"/>
</svg>
