<svg viewBox="0 0 22 23" xmlns="http://www.w3.org/2000/svg">
<path d="M0.73346 11.7358H12.1681L10.4811 13.4154C10.4124 13.4836 10.3578 13.5647 10.3206 13.6541C10.2834 13.7435 10.2642 13.8393 10.2642 13.9362C10.2642 14.033 10.2834 14.1289 10.3206 14.2182C10.3578 14.3076 10.4124 14.3887 10.4811 14.4569C10.5493 14.5257 10.6304 14.5802 10.7198 14.6175C10.8092 14.6547 10.9051 14.6739 11.0019 14.6739C11.0987 14.6739 11.1946 14.6547 11.284 14.6175C11.3734 14.5802 11.4545 14.5257 11.5227 14.4569L14.4565 11.5231C14.5233 11.4533 14.5756 11.3711 14.6105 11.281C14.6839 11.1025 14.6839 10.9022 14.6105 10.7236C14.5756 10.6336 14.5233 10.5513 14.4565 10.4816L11.5227 7.54774C11.3845 7.40962 11.1972 7.33203 11.0019 7.33203C10.8066 7.33203 10.6193 7.40962 10.4811 7.54774C10.343 7.68585 10.2654 7.87317 10.2654 8.06849C10.2654 8.26381 10.343 8.45114 10.4811 8.58925L12.1681 10.2689H0.73346C0.538934 10.2689 0.352376 10.3461 0.214825 10.4837C0.077275 10.6212 0 10.8078 0 11.0023C0 11.1969 0.077275 11.3834 0.214825 11.521C0.352376 11.6585 0.538934 11.7358 0.73346 11.7358Z" fill="black"/>
<path d="M0.73346 11.7358H12.1681L10.4811 13.4154C10.4124 13.4836 10.3578 13.5647 10.3206 13.6541C10.2834 13.7435 10.2642 13.8393 10.2642 13.9362C10.2642 14.033 10.2834 14.1289 10.3206 14.2182C10.3578 14.3076 10.4124 14.3887 10.4811 14.4569C10.5493 14.5257 10.6304 14.5802 10.7198 14.6175C10.8092 14.6547 10.9051 14.6739 11.0019 14.6739C11.0987 14.6739 11.1946 14.6547 11.284 14.6175C11.3734 14.5802 11.4545 14.5257 11.5227 14.4569L14.4565 11.5231C14.5233 11.4533 14.5756 11.3711 14.6105 11.281C14.6839 11.1025 14.6839 10.9022 14.6105 10.7236C14.5756 10.6336 14.5233 10.5513 14.4565 10.4816L11.5227 7.54774C11.3845 7.40962 11.1972 7.33203 11.0019 7.33203C10.8066 7.33203 10.6193 7.40962 10.4811 7.54774C10.343 7.68585 10.2654 7.87317 10.2654 8.06849C10.2654 8.26381 10.343 8.45114 10.4811 8.58925L12.1681 10.2689H0.73346C0.538934 10.2689 0.352376 10.3461 0.214825 10.4837C0.077275 10.6212 0 10.8078 0 11.0023C0 11.1969 0.077275 11.3834 0.214825 11.521C0.352376 11.6585 0.538934 11.7358 0.73346 11.7358Z" fill="url(#paint0_linear_332_755)"/>
<path d="M0.73346 11.7358H12.1681L10.4811 13.4154C10.4124 13.4836 10.3578 13.5647 10.3206 13.6541C10.2834 13.7435 10.2642 13.8393 10.2642 13.9362C10.2642 14.033 10.2834 14.1289 10.3206 14.2182C10.3578 14.3076 10.4124 14.3887 10.4811 14.4569C10.5493 14.5257 10.6304 14.5802 10.7198 14.6175C10.8092 14.6547 10.9051 14.6739 11.0019 14.6739C11.0987 14.6739 11.1946 14.6547 11.284 14.6175C11.3734 14.5802 11.4545 14.5257 11.5227 14.4569L14.4565 11.5231C14.5233 11.4533 14.5756 11.3711 14.6105 11.281C14.6839 11.1025 14.6839 10.9022 14.6105 10.7236C14.5756 10.6336 14.5233 10.5513 14.4565 10.4816L11.5227 7.54774C11.3845 7.40962 11.1972 7.33203 11.0019 7.33203C10.8066 7.33203 10.6193 7.40962 10.4811 7.54774C10.343 7.68585 10.2654 7.87317 10.2654 8.06849C10.2654 8.26381 10.343 8.45114 10.4811 8.58925L12.1681 10.2689H0.73346C0.538934 10.2689 0.352376 10.3461 0.214825 10.4837C0.077275 10.6212 0 10.8078 0 11.0023C0 11.1969 0.077275 11.3834 0.214825 11.521C0.352376 11.6585 0.538934 11.7358 0.73346 11.7358Z" fill="#2EB897"/>
<path d="M11.002 0C8.63099 0.00934108 6.32567 0.779829 4.42555 2.19799C2.52543 3.61615 1.13095 5.60701 0.447477 7.87736C0.418276 7.97076 0.408061 8.06907 0.417435 8.16648C0.42681 8.26389 0.455583 8.35845 0.502061 8.44457C0.54854 8.53069 0.611782 8.60664 0.688064 8.66794C0.764346 8.72924 0.852125 8.77466 0.94623 8.80152C1.13297 8.85599 1.33371 8.83404 1.50427 8.74051C1.67483 8.64697 1.80125 8.48951 1.85572 8.30277C2.50627 6.10511 3.92665 4.21531 5.85679 2.97939C7.78692 1.74347 10.0977 1.24413 12.3659 1.57281C14.6341 1.90148 16.7081 3.03617 18.208 4.76912C19.708 6.50207 20.5335 8.71731 20.5335 11.0092C20.5335 13.3012 19.708 15.5164 18.208 17.2493C16.7081 18.9823 14.6341 20.117 12.3659 20.4457C10.0977 20.7743 7.78692 20.275 5.85679 19.0391C3.92665 17.8032 2.50627 15.9134 1.85572 13.7157C1.83031 13.6219 1.78652 13.5341 1.72688 13.4574C1.66725 13.3807 1.59297 13.3166 1.50835 13.2688C1.42373 13.221 1.33046 13.1905 1.23396 13.1791C1.13747 13.1677 1.03966 13.1756 0.94623 13.2023C0.852949 13.2292 0.76594 13.2744 0.69025 13.3352C0.61456 13.396 0.551694 13.4712 0.505299 13.5565C0.458904 13.6418 0.429903 13.7354 0.419977 13.832C0.410052 13.9286 0.419399 14.0262 0.447477 14.1191C1.02588 16.0769 2.13757 17.8351 3.6582 19.1971C5.17883 20.5591 7.04842 21.4712 9.05782 21.8313C11.0672 22.1914 13.1372 21.9853 15.0362 21.2361C16.9351 20.4869 18.5882 19.2242 19.8105 17.5891C21.0327 15.954 21.776 14.0112 21.9571 11.9778C22.1381 9.94442 21.7499 7.90077 20.8358 6.07546C19.9217 4.25014 18.5178 2.71515 16.7811 1.64219C15.0444 0.569236 13.0434 0.000636627 11.002 0Z" />
<path d="M11.002 0C8.63099 0.00934108 6.32567 0.779829 4.42555 2.19799C2.52543 3.61615 1.13095 5.60701 0.447477 7.87736C0.418276 7.97076 0.408061 8.06907 0.417435 8.16648C0.42681 8.26389 0.455583 8.35845 0.502061 8.44457C0.54854 8.53069 0.611782 8.60664 0.688064 8.66794C0.764346 8.72924 0.852125 8.77466 0.94623 8.80152C1.13297 8.85599 1.33371 8.83404 1.50427 8.74051C1.67483 8.64697 1.80125 8.48951 1.85572 8.30277C2.50627 6.10511 3.92665 4.21531 5.85679 2.97939C7.78692 1.74347 10.0977 1.24413 12.3659 1.57281C14.6341 1.90148 16.7081 3.03617 18.208 4.76912C19.708 6.50207 20.5335 8.71731 20.5335 11.0092C20.5335 13.3012 19.708 15.5164 18.208 17.2493C16.7081 18.9823 14.6341 20.117 12.3659 20.4457C10.0977 20.7743 7.78692 20.275 5.85679 19.0391C3.92665 17.8032 2.50627 15.9134 1.85572 13.7157C1.83031 13.6219 1.78652 13.5341 1.72688 13.4574C1.66725 13.3807 1.59297 13.3166 1.50835 13.2688C1.42373 13.221 1.33046 13.1905 1.23396 13.1791C1.13747 13.1677 1.03966 13.1756 0.94623 13.2023C0.852949 13.2292 0.76594 13.2744 0.69025 13.3352C0.61456 13.396 0.551694 13.4712 0.505299 13.5565C0.458904 13.6418 0.429903 13.7354 0.419977 13.832C0.410052 13.9286 0.419399 14.0262 0.447477 14.1191C1.02588 16.0769 2.13757 17.8351 3.6582 19.1971C5.17883 20.5591 7.04842 21.4712 9.05782 21.8313C11.0672 22.1914 13.1372 21.9853 15.0362 21.2361C16.9351 20.4869 18.5882 19.2242 19.8105 17.5891C21.0327 15.954 21.776 14.0112 21.9571 11.9778C22.1381 9.94442 21.7499 7.90077 20.8358 6.07546C19.9217 4.25014 18.5178 2.71515 16.7811 1.64219C15.0444 0.569236 13.0434 0.000636627 11.002 0Z" fill="url(#paint1_linear_332_755)"/>
<path d="M11.002 0C8.63099 0.00934108 6.32567 0.779829 4.42555 2.19799C2.52543 3.61615 1.13095 5.60701 0.447477 7.87736C0.418276 7.97076 0.408061 8.06907 0.417435 8.16648C0.42681 8.26389 0.455583 8.35845 0.502061 8.44457C0.54854 8.53069 0.611782 8.60664 0.688064 8.66794C0.764346 8.72924 0.852125 8.77466 0.94623 8.80152C1.13297 8.85599 1.33371 8.83404 1.50427 8.74051C1.67483 8.64697 1.80125 8.48951 1.85572 8.30277C2.50627 6.10511 3.92665 4.21531 5.85679 2.97939C7.78692 1.74347 10.0977 1.24413 12.3659 1.57281C14.6341 1.90148 16.7081 3.03617 18.208 4.76912C19.708 6.50207 20.5335 8.71731 20.5335 11.0092C20.5335 13.3012 19.708 15.5164 18.208 17.2493C16.7081 18.9823 14.6341 20.117 12.3659 20.4457C10.0977 20.7743 7.78692 20.275 5.85679 19.0391C3.92665 17.8032 2.50627 15.9134 1.85572 13.7157C1.83031 13.6219 1.78652 13.5341 1.72688 13.4574C1.66725 13.3807 1.59297 13.3166 1.50835 13.2688C1.42373 13.221 1.33046 13.1905 1.23396 13.1791C1.13747 13.1677 1.03966 13.1756 0.94623 13.2023C0.852949 13.2292 0.76594 13.2744 0.69025 13.3352C0.61456 13.396 0.551694 13.4712 0.505299 13.5565C0.458904 13.6418 0.429903 13.7354 0.419977 13.832C0.410052 13.9286 0.419399 14.0262 0.447477 14.1191C1.02588 16.0769 2.13757 17.8351 3.6582 19.1971C5.17883 20.5591 7.04842 21.4712 9.05782 21.8313C11.0672 22.1914 13.1372 21.9853 15.0362 21.2361C16.9351 20.4869 18.5882 19.2242 19.8105 17.5891C21.0327 15.954 21.776 14.0112 21.9571 11.9778C22.1381 9.94442 21.7499 7.90077 20.8358 6.07546C19.9217 4.25014 18.5178 2.71515 16.7811 1.64219C15.0444 0.569236 13.0434 0.000636627 11.002 0Z" />
<defs>
<linearGradient id="paint0_linear_332_755" x1="0.855965" y1="7.33204" x2="25.462" y2="8.58831" gradientUnits="userSpaceOnUse">
<stop stop-color="#11AE88"/>
<stop offset="1" stop-color="#2A84EE"/>
</linearGradient>
<linearGradient id="paint1_linear_332_755" x1="1.67397" y1="1.87313e-05" x2="37.9635" y2="0.909955" gradientUnits="userSpaceOnUse">
<stop stop-color="#11AE88"/>
<stop offset="1" stop-color="#2A84EE"/>
</linearGradient>
</defs>
</svg>
