<svg width="81" height="81" viewBox="0 0 81 81" fill="none" xmlns="http://www.w3.org/2000/svg">
<mask id="mask0_332_921" style="mask-type:luminance" maskUnits="userSpaceOnUse" x="4" y="4" width="72" height="72">
<path d="M4.79065 40.3405C4.79065 59.9744 20.7068 75.8906 40.3407 75.8906C59.9746 75.8906 75.8908 59.9744 75.8908 40.3405C75.8908 20.7067 59.9746 4.79047 40.3407 4.79047C20.7068 4.79047 4.79065 20.7067 4.79065 40.3405Z" fill="white"/>
</mask>
<g mask="url(#mask0_332_921)">
<path d="M4.79077 40.341C4.79077 59.9749 20.707 75.8911 40.3408 75.8911C59.9747 75.8911 75.8909 59.9749 75.8909 40.341C75.8909 20.7072 59.9747 4.79096 40.3408 4.79096C20.707 4.79096 4.79077 20.7072 4.79077 40.341Z" fill="url(#paint0_linear_332_921)"/>
</g>
<mask id="mask1_332_921" style="mask-type:luminance" maskUnits="userSpaceOnUse" x="0" y="0" width="81" height="81">
<path d="M0 0.000221252H80.4357V80.1084H0V0.000221252Z" fill="white"/>
</mask>
<g mask="url(#mask1_332_921)">
<path d="M28.8551 42.94L33.0729 54.6142C33.0729 54.6142 33.6001 55.7061 34.165 55.7061C34.7299 55.7061 43.1279 46.9692 43.1279 46.9692L52.4673 28.9305L29.0057 39.9269L28.8551 42.94Z" fill="#C8DAEA"/>
</g>
<mask id="mask2_332_921" style="mask-type:luminance" maskUnits="userSpaceOnUse" x="0" y="0" width="81" height="81">
<path d="M0 0.000221252H80.4357V80.1084H0V0.000221252Z" fill="white"/>
</mask>
<g mask="url(#mask2_332_921)">
<path d="M34.4472 45.9334L33.6373 54.5383C33.6373 54.5383 33.2984 57.1745 35.9345 54.5383C38.5707 51.9022 41.0938 49.8686 41.0938 49.8686" fill="#A9C6D8"/>
</g>
<mask id="mask3_332_921" style="mask-type:luminance" maskUnits="userSpaceOnUse" x="0" y="0" width="81" height="81">
<path d="M0 0.000221252H80.4357V80.1084H0V0.000221252Z" fill="white"/>
</mask>
<g mask="url(#mask3_332_921)">
<path d="M28.9314 43.3559L20.2563 40.5291C20.2563 40.5291 19.2208 40.1088 19.5534 39.1547C19.6221 38.958 19.7604 38.7908 20.1746 38.5018C22.0973 37.1621 55.756 25.0639 55.756 25.0639C55.756 25.0639 56.7065 24.744 57.2684 24.9567C57.5251 25.054 57.689 25.1639 57.827 25.5652C57.8773 25.7113 57.9062 26.022 57.9023 26.3311C57.8993 26.554 57.8722 26.7604 57.8523 27.0842C57.6474 30.3922 51.5135 55.0778 51.5135 55.0778C51.5135 55.0778 51.1466 56.5224 49.8315 56.5715C49.3519 56.5896 48.7698 56.4923 48.0739 55.8937C45.4935 53.6739 36.5738 47.6795 34.6031 46.3614C34.4917 46.2873 34.4603 46.1906 34.4414 46.0963C34.4136 45.9577 34.5619 45.7848 34.5619 45.7848C34.5619 45.7848 50.093 31.979 50.5064 30.5305C50.5383 30.4181 50.4181 30.3627 50.2551 30.4112C49.2236 30.7908 31.3413 42.0825 29.3679 43.3297C29.2525 43.4026 28.929 43.3556 28.929 43.3556" fill="white"/>
</g>
<defs>
<linearGradient id="paint0_linear_332_921" x1="40.3408" y1="75.8908" x2="40.3408" y2="4.79066" gradientUnits="userSpaceOnUse">
<stop stop-color="#1D93D2"/>
<stop offset="1" stop-color="#38B0E3"/>
</linearGradient>
</defs>
</svg>
