<?xml version="1.0" encoding="UTF-8"?><!DOCTYPE svg PUBLIC "-//W3C//DTD SVG 1.1//EN" "http://www.w3.org/Graphics/SVG/1.1/DTD/svg11.dtd"><svg xmlns="http://www.w3.org/2000/svg" xmlns:xlink="http://www.w3.org/1999/xlink"><symbol id="check" viewBox="0 0 26 26"><path fill-rule="evenodd" clip-rule="evenodd" d="M13 26c7.18 0 13-5.82 13-13S20.18 0 13 0 0 5.82 0 13s5.82 13 13 13Zm0-2.364c5.874 0 10.636-4.762 10.636-10.636S18.874 2.364 13 2.364 2.364 7.126 2.364 13 7.126 23.636 13 23.636Zm-1.14-9.269L9.353 11.86l-1.671 1.671 4.178 4.179 1.254-1.254 5.921-5.921-1.671-1.671-5.504 5.503Z"/><path fill-rule="evenodd" clip-rule="evenodd" d="M13 26c7.18 0 13-5.82 13-13S20.18 0 13 0 0 5.82 0 13s5.82 13 13 13Zm0-2.364c5.874 0 10.636-4.762 10.636-10.636S18.874 2.364 13 2.364 2.364 7.126 2.364 13 7.126 23.636 13 23.636Zm-1.14-9.269L9.353 11.86l-1.671 1.671 4.178 4.179 1.254-1.254 5.921-5.921-1.671-1.671-5.504 5.503Z"/></symbol></svg>