<?xml version="1.0" encoding="UTF-8"?><!DOCTYPE svg PUBLIC "-//W3C//DTD SVG 1.1//EN" "http://www.w3.org/Graphics/SVG/1.1/DTD/svg11.dtd"><svg xmlns="http://www.w3.org/2000/svg" xmlns:xlink="http://www.w3.org/1999/xlink"><defs><linearGradient id="more-a" x1=".856" y1="7.332" x2="25.462" y2="8.588" gradientUnits="userSpaceOnUse"><stop stop-color="#11AE88"/><stop offset="1" stop-color="#2A84EE"/></linearGradient><linearGradient id="more-b" x1="1.674" y1="0" x2="37.964" y2=".91" gradientUnits="userSpaceOnUse"><stop stop-color="#11AE88"/><stop offset="1" stop-color="#2A84EE"/></linearGradient></defs><symbol id="check" viewBox="0 0 26 26"><path fill-rule="evenodd" clip-rule="evenodd" d="M13 26c7.18 0 13-5.82 13-13S20.18 0 13 0 0 5.82 0 13s5.82 13 13 13Zm0-2.364c5.874 0 10.636-4.762 10.636-10.636S18.874 2.364 13 2.364 2.364 7.126 2.364 13 7.126 23.636 13 23.636Zm-1.14-9.269L9.353 11.86l-1.671 1.671 4.178 4.179 1.254-1.254 5.921-5.921-1.671-1.671-5.504 5.503Z"/><path fill-rule="evenodd" clip-rule="evenodd" d="M13 26c7.18 0 13-5.82 13-13S20.18 0 13 0 0 5.82 0 13s5.82 13 13 13Zm0-2.364c5.874 0 10.636-4.762 10.636-10.636S18.874 2.364 13 2.364 2.364 7.126 2.364 13 7.126 23.636 13 23.636Zm-1.14-9.269L9.353 11.86l-1.671 1.671 4.178 4.179 1.254-1.254 5.921-5.921-1.671-1.671-5.504 5.503Z"/></symbol><symbol id="more" viewBox="0 0 22 23"><path d="M.733 11.736h11.435l-1.687 1.68a.733.733 0 0 0 .239 1.201.734.734 0 0 0 .803-.16l2.934-2.934a.733.733 0 0 0 .153-.242.733.733 0 0 0 0-.557.732.732 0 0 0-.153-.242l-2.934-2.934a.737.737 0 0 0-1.042 1.041l1.687 1.68H.733a.733.733 0 1 0 0 1.467Z"/><path d="M.733 11.736h11.435l-1.687 1.68a.733.733 0 0 0 .239 1.201.734.734 0 0 0 .803-.16l2.934-2.934a.733.733 0 0 0 .153-.242.733.733 0 0 0 0-.557.732.732 0 0 0-.153-.242l-2.934-2.934a.737.737 0 0 0-1.042 1.041l1.687 1.68H.733a.733.733 0 1 0 0 1.467Z"/><path d="M.733 11.736h11.435l-1.687 1.68a.733.733 0 0 0 .239 1.201.734.734 0 0 0 .803-.16l2.934-2.934a.733.733 0 0 0 .153-.242.733.733 0 0 0 0-.557.732.732 0 0 0-.153-.242l-2.934-2.934a.737.737 0 0 0-1.042 1.041l1.687 1.68H.733a.733.733 0 1 0 0 1.467Z"/><path d="M11.002 0A11.068 11.068 0 0 0 .447 7.877a.733.733 0 0 0 .5.925.733.733 0 0 0 .909-.5 9.535 9.535 0 1 1 0 5.414.733.733 0 1 0-1.409.403A11.002 11.002 0 1 0 11.002 0Z"/><path d="M11.002 0A11.068 11.068 0 0 0 .447 7.877a.733.733 0 0 0 .5.925.733.733 0 0 0 .909-.5 9.535 9.535 0 1 1 0 5.414.733.733 0 1 0-1.409.403A11.002 11.002 0 1 0 11.002 0Z"/><path d="M11.002 0A11.068 11.068 0 0 0 .447 7.877a.733.733 0 0 0 .5.925.733.733 0 0 0 .909-.5 9.535 9.535 0 1 1 0 5.414.733.733 0 1 0-1.409.403A11.002 11.002 0 1 0 11.002 0Z"/></symbol></svg>